# xmcd
#
# Track frame offsets:
#	150
#	5420
#	12994
#	19825
#	27376
#	34323
#	42126
#	47489
#	55892
#	61896
#	68907
#	74859
#	80064
#	87507
#	95545
#	101585
#	106927
#	115477
#	121857
#	129118
#	135243
#	141489
#	149196
#	156644
#	160618
#	164857
#	171401
#	178969
#	185251
#	188326
#	197553
#	202712
#	210449
#	216116
#	223569
#	230763
#	237689
#	243863
#	250280
#	256435
#	263469
#	270379
#	276522
#	283918
#	291057
#	297074
#	304830
#	312085
#	316654
#	321658
#
# Disc length: 4396 seconds
#
# Revision: 1
# Processed by: cddbd v1.5.2PL0 Copyright (c) Steve Scherf et al.
# Submitted via: EZCDAudioConverter 8.0.2.1
#
DISCID=fb112a32
DTITLE=VMP - 348 D and K Live Mix Non-Stop Party Zone Disc1
DYEAR=2002
DGENRE=Dance
TTITLE0=Knock Knock Knock
TTITLE1=Pa Pa Don't Cry
TTITLE2=Dragon
TTITLE3=Yo Yo Yo
TTITLE4=Vamos Amigos
TTITLE5=Drive Me Crazy
TTITLE6=Music
TTITLE7=Sweet La La Love
TTITLE8=It's A Fine Day
TTITLE9=9 Pm (Til I Come)
TTITLE10=On A Helium Trip
TTITLE11=This Is How We Do It
TTITLE12=Kiss(When The Sun Don't Shine)
TTITLE13=Saturday Night 2000
TTITLE14=Pa Pa Got A Brand New Pigbag
TTITLE15=The Whistle Song
TTITLE16=Tarzan And Jane
TTITLE17=Oh Le Le 
TTITLE18=Dura Dura
TTITLE19=Hidi Hidi Oh
TTITLE20=Blue (Da Ba Dee)
TTITLE21=Cinderella
TTITLE22=Move Your Body
TTITLE23=2 Times
TTITLE24=Up And Down
TTITLE25=Happy Song
TTITLE26=All I Really Want
TTITLE27=Bye Bye Pretty Love
TTITLE28=Birthday Party 2000
TTITLE29=We're Going To Ibiza
TTITLE30=One Way Ticket 2000
TTITLE31=Sing A Song (All Night Long)
TTITLE32=Formula
TTITLE33=Ibiza 2000
TTITLE34=Ride On Time 2000
TTITLE35=Happiness
TTITLE36=Eins Zwer,Polizei 2000
TTITLE37=Bootleg Horns
TTITLE38=Clap Your Hands
TTITLE39=Zombie Nation
TTITLE40=Vollgas
TTITLE41=Billig
TTITLE42=Ich Bin Gut Zu Vogein
TTITLE43=Nathen #4
TTITLE44=No More Turning Back
TTITLE45=I Wanna Boom Boom Boom
TTITLE46=Wttch Doctor
TTITLE47=Ballane Pour Elise 2000
TTITLE48=At The Club
TTITLE49=Dream A Dream
EXTD=
EXTT0=
EXTT1=
EXTT2=
EXTT3=
EXTT4=
EXTT5=
EXTT6=
EXTT7=
EXTT8=
EXTT9=
EXTT10=
EXTT11=
EXTT12=
EXTT13=
EXTT14=
EXTT15=
EXTT16=
EXTT17=
EXTT18=
EXTT19=
EXTT20=
EXTT21=
EXTT22=
EXTT23=
EXTT24=
EXTT25=
EXTT26=
EXTT27=
EXTT28=
EXTT29=
EXTT30=
EXTT31=
EXTT32=
EXTT33=
EXTT34=
EXTT35=
EXTT36=
EXTT37=
EXTT38=
EXTT39=
EXTT40=
EXTT41=
EXTT42=
EXTT43=
EXTT44=
EXTT45=
EXTT46=
EXTT47=
EXTT48=
EXTT49=
PLAYORDER=
